<svg width="43" height="43" viewBox="0 0 43 43" fill="none" xmlns="http://www.w3.org/2000/svg">
<path fill-rule="evenodd" clip-rule="evenodd" d="M17.1486 21.9218H18.6196V30.8201C18.6196 31.0156 18.7842 31.1802 18.9797 31.1802H22.827C23.0225 31.1802 23.1871 31.0156 23.1871 30.8201V21.9218H25.4194C25.6045 21.9218 25.7589 21.7778 25.7794 21.6029L26.1189 18.3316C26.1395 18.1361 25.9955 17.9613 25.8 17.9407C25.7897 17.9407 25.7794 17.9407 25.7589 17.9407H23.1871V16.377C23.1871 16.2742 23.1974 16.1713 23.2385 16.0787C23.2797 15.9861 23.3517 15.9141 23.4545 15.8833C23.5163 15.8627 23.578 15.8524 23.6397 15.8524H25.7074C25.9029 15.8524 26.0675 15.6878 26.0675 15.4924V12.3239C26.0675 12.1285 25.9029 11.9639 25.7074 11.9639L22.8579 11.9536C22.1378 11.933 21.4177 12.0873 20.7593 12.3857C20.3581 12.5708 19.9981 12.8383 19.6998 13.1572C19.2986 13.5892 19.0105 14.1139 18.8356 14.6797C18.6813 15.1735 18.6093 15.6775 18.6093 16.1919V17.951H17.1383C16.9428 17.951 16.7782 18.1156 16.7782 18.311V21.5823C16.7885 21.7572 16.9428 21.9218 17.1486 21.9218Z" fill="#716565"/>
<path fill-rule="evenodd" clip-rule="evenodd" d="M21.4486 42.9795C33.2993 42.9898 42.9074 33.4022 42.928 21.5515C42.9486 9.70076 33.3404 0.0926286 21.5 0.0720545C9.65957 0.0514803 0.0308603 9.65962 0.0205732 21.5C0.0102862 27.1991 2.27344 32.6615 6.30598 36.6941C10.3179 40.7266 15.7701 42.9795 21.4486 42.9795ZM21.4486 2.27349C32.106 2.2632 40.7574 10.9044 40.7677 21.5618C40.778 32.2192 32.1368 40.8706 21.4794 40.8809C10.822 40.8809 2.17057 32.25 2.16029 21.5926C2.16029 16.4697 4.18684 11.5524 7.81818 7.9211C11.4289 4.30005 16.3359 2.2632 21.4486 2.27349Z" fill="#716565"/>
</svg>
