<svg width="43" height="43" viewBox="0 0 43 43" fill="none" xmlns="http://www.w3.org/2000/svg">
<path fill-rule="evenodd" clip-rule="evenodd" d="M21.4486 42.9795C33.2993 42.9898 42.9074 33.4022 42.928 21.5515C42.9486 9.70076 33.3404 0.0926286 21.5 0.0720545C9.65957 0.0514803 0.0308603 9.65962 0.0205732 21.5C0.0102862 27.1991 2.27344 32.6615 6.30598 36.6941C10.3179 40.7266 15.7701 42.9795 21.4486 42.9795ZM21.4486 2.27349C32.106 2.2632 40.7574 10.9044 40.7677 21.5618C40.778 32.2192 32.1368 40.8706 21.4794 40.8809C10.822 40.8809 2.17057 32.25 2.16029 21.5926C2.16029 16.4697 4.18684 11.5524 7.81818 7.9211C11.4289 4.30005 16.3359 2.2632 21.4486 2.27349Z" fill="#716565"/>
<path fill-rule="evenodd" clip-rule="evenodd" d="M11.5935 27.9294C13.4658 29.133 15.6466 29.7708 17.8686 29.7708C19.5866 29.7811 21.2942 29.4211 22.8579 28.701C24.9256 27.734 26.6538 26.1498 27.8163 24.1746C28.9067 22.3435 29.493 20.2553 29.5136 18.1156C29.5136 18.0024 29.5136 17.8892 29.5136 17.7761C30.2543 17.2103 30.9024 16.5313 31.427 15.7495C31.5402 15.5849 31.4887 15.3586 31.3242 15.2455C31.2213 15.1735 31.0875 15.1632 30.9744 15.2146C30.6966 15.338 30.4189 15.4409 30.1308 15.5232C30.4909 15.1014 30.7584 14.6077 30.923 14.083C30.9847 13.8979 30.8818 13.6921 30.6864 13.6304C30.5835 13.5995 30.4806 13.6098 30.388 13.6613C29.6988 14.0727 28.9478 14.3608 28.166 14.5357C26.4481 12.8691 23.7117 12.9206 22.0452 14.6385C21.2634 15.4409 20.8313 16.5211 20.8313 17.6526C20.8313 17.8275 20.8416 17.9921 20.8622 18.167C17.9407 17.8995 15.2557 16.4696 13.4041 14.1859C13.2806 14.0316 13.0543 14.011 12.9 14.1345C12.8691 14.1653 12.8383 14.1962 12.8177 14.2373C11.9227 15.7804 12.0564 17.7144 13.1777 19.1031C13.0234 19.0414 12.8794 18.9797 12.7354 18.8974C12.5605 18.8048 12.3445 18.8665 12.2416 19.0414C12.2108 19.0928 12.2005 19.1443 12.2005 19.206C12.2005 19.2368 12.2005 19.2471 12.2005 19.2677C12.2005 20.7285 12.9411 22.0967 14.1756 22.8991C14.1242 22.8888 14.0727 22.8785 14.0213 22.8682C13.8258 22.827 13.6407 22.9608 13.5995 23.1562C13.5892 23.218 13.5892 23.2797 13.6098 23.3311C14.0624 24.761 15.2352 25.8514 16.6856 26.2115C15.2249 27.0962 13.5172 27.4665 11.8301 27.2608C11.6347 27.2402 11.4495 27.3739 11.4289 27.5797C11.4186 27.7134 11.4804 27.8471 11.5935 27.9294Z" fill="#716565"/>
</svg>
