<svg width="43" height="43" viewBox="0 0 43 43" fill="none" xmlns="http://www.w3.org/2000/svg">
<path fill-rule="evenodd" clip-rule="evenodd" d="M14.8854 28.4644H28.0117C29.7605 28.4644 31.1698 27.0551 31.1698 25.3063V17.7967C31.1698 16.0582 29.7605 14.6385 28.0117 14.6385H14.8854C13.1469 14.6385 11.7273 16.0479 11.7273 17.7967V25.3063C11.7273 27.0551 13.1366 28.4644 14.8854 28.4644ZM19.9364 24.0512V18.3419L24.2672 21.1914L19.9364 24.0512Z" fill="#716565"/>
<path fill-rule="evenodd" clip-rule="evenodd" d="M21.4486 42.9795C33.2993 42.9898 42.9074 33.4022 42.928 21.5515C42.9486 9.70076 33.3404 0.0926286 21.5 0.0720545C9.65957 0.0514803 0.0308603 9.65962 0.0205732 21.5C0.0102862 27.1991 2.27344 32.6615 6.30598 36.6941C10.3179 40.7266 15.7701 42.9795 21.4486 42.9795ZM21.4486 2.27349C32.106 2.2632 40.7574 10.9044 40.7677 21.5618C40.778 32.2192 32.1368 40.8706 21.4794 40.8809C10.822 40.8809 2.17057 32.25 2.16029 21.5926C2.16029 16.4697 4.18684 11.5524 7.81818 7.9211C11.4289 4.30005 16.3359 2.2632 21.4486 2.27349Z" fill="#716565"/>
</svg>
