<svg width="40" height="39" viewBox="0 0 40 39" fill="none" xmlns="http://www.w3.org/2000/svg">
<path fill-rule="evenodd" clip-rule="evenodd" d="M0.350875 29.3474L31.7599 2.77952C32.2287 2.31194 32.9865 2.31194 33.4541 2.77952L38.5358 7.84897C39.0058 8.3153 39.0058 9.07198 38.5358 9.53957L7.12549 36.1087C6.65791 36.575 5.89998 36.575 5.43128 36.1087L0.349625 31.0368C-0.116709 30.5704 -0.116709 29.8137 0.350875 29.3474Z" fill="#C0A04C"/>
<path fill-rule="evenodd" clip-rule="evenodd" d="M17.4187 21.3571L16.4933 22.1391L19.5222 25.6225L20.4466 24.8403L17.4187 21.3571Z" fill="#937B3B"/>
<path fill-rule="evenodd" clip-rule="evenodd" d="M21.7836 20.8396L20.8582 21.6218L22.2962 23.2748L23.2204 22.4938L21.7836 20.8396Z" fill="#937B3B"/>
<path fill-rule="evenodd" clip-rule="evenodd" d="M11.8671 26.0487L10.9415 26.8322L13.9718 30.3166L14.8973 29.5357L11.8671 26.0487Z" fill="#937B3B"/>
<path fill-rule="evenodd" clip-rule="evenodd" d="M37.9018 7.21753L37.5107 7.54785L38.8175 9.05025C38.9463 8.63971 38.8625 8.17574 38.5358 7.85027L37.9018 7.21753Z" fill="#937B3B"/>
<path fill-rule="evenodd" clip-rule="evenodd" d="M16.2321 25.5314L15.3079 26.3135L16.747 27.9714L17.6713 27.188L16.2321 25.5314Z" fill="#937B3B"/>
<path fill-rule="evenodd" clip-rule="evenodd" d="M34.0723 7.2843L33.1468 8.06527L36.1686 11.5413L37.0929 10.7603L34.0723 7.2843Z" fill="#937B3B"/>
<path fill-rule="evenodd" clip-rule="evenodd" d="M22.9691 16.6652L22.0449 17.4474L25.0715 20.9295L25.9957 20.1461L22.9691 16.6652Z" fill="#937B3B"/>
<path fill-rule="evenodd" clip-rule="evenodd" d="M32.8857 11.4574L31.9603 12.2395L33.3934 13.8889L34.3201 13.1055L32.8857 11.4574Z" fill="#937B3B"/>
<path fill-rule="evenodd" clip-rule="evenodd" d="M27.3352 16.149L26.4085 16.93L27.8442 18.583L28.7696 17.8008L27.3352 16.149Z" fill="#937B3B"/>
<path fill-rule="evenodd" clip-rule="evenodd" d="M28.5194 11.976L27.5965 12.7569L30.6195 16.2354L31.5449 15.4532L28.5194 11.976Z" fill="#937B3B"/>
<path fill-rule="evenodd" clip-rule="evenodd" d="M37.6625 0.0116577H1.22539C0.555029 0.0116577 0.0108337 0.554604 0.0108337 1.22621V8.51338C0.0108337 9.18374 0.554891 9.72793 1.22539 9.72793H37.6625C38.3341 9.72793 38.877 9.18388 38.877 8.51338V1.22621C38.877 0.554466 38.3328 0.0116577 37.6625 0.0116577ZM37.6625 29.1603H1.22539C0.555029 29.1603 0.0108337 29.7033 0.0108337 30.3736V37.6621C0.0108337 38.3324 0.554891 38.8766 1.22539 38.8766H37.6625C38.3341 38.8766 38.877 38.3326 38.877 37.6621V30.3736C38.877 29.7033 38.3328 29.1603 37.6625 29.1603Z" fill="#EFC75E"/>
<path fill-rule="evenodd" clip-rule="evenodd" d="M2.43979 4.86973H3.65434V0.0116577H2.43979V4.86973ZM6.08344 2.44062H7.298V0.0116577H6.08344V2.44062ZM9.72696 4.86973H10.9415V0.0116577H9.72696V4.86973ZM13.3706 2.44062H14.5852V0.0116577H13.3706V2.44062ZM17.0143 4.86973H18.2288V0.0116577H17.0143V4.86973ZM20.6578 2.44062H21.8723V0.0116577H20.6578V2.44062ZM24.3014 4.86973H25.516V0.0116577H24.3014V4.86973ZM27.945 2.44062H29.1595V0.0116577H27.945V2.44062ZM31.5886 4.86973H32.8032V0.0116577H31.5886V4.86973ZM35.2334 0.0116577V2.44076H36.4479V0.0116577H35.2334ZM2.43979 38.8766H3.65434V34.0185H2.43979V38.8766ZM6.08344 38.8766H7.298V36.4475H6.08344V38.8766ZM9.72696 38.8766H10.9415V34.0185H9.72696V38.8766ZM13.3706 38.8766H14.5852V36.4475H13.3706V38.8766ZM17.0143 38.8766H18.2288V34.0185H17.0143V38.8766ZM20.6578 38.8766H21.8723V36.4475H20.6578V38.8766ZM24.3014 38.8766H25.516V34.0185H24.3014V38.8766ZM27.945 38.8766H29.1595V36.4475H27.945V38.8766ZM31.5886 38.8766H32.8032V34.0185H31.5886V38.8766ZM35.2334 38.8766H36.4479V36.4475H35.2334V38.8766Z" fill="#B39546"/>
</svg>
